# xmcd
#
# Track frame offsets:
#	170
#	30202
#	50842
#	80295
#	109077
#	132520
#	156407
#	169127
#	188975
#
# Disc length: 2784 seconds
#
# Revision: 0
# Processed by: cddbd v1.4PL0 Copyright (c) Steve Scherf et al.
# Submitted via: EasyCDDAExtractor 4.5.0.2
#
DISCID=740ade09
DTITLE=Homesick James and the Hypnotics - sweet home tennessee
DYEAR=1900
DGENRE=Blues
TTITLE0=Gotta Move
TTITLE1=Meet Me In The Bottom
TTITLE2=Crawlin'kingsnake
TTITLE3=Come Back Baby
TTITLE4=Can't Afford To Do It
TTITLE5=Sweet Home Tennessee
TTITLE6=Kissing In The Dark
TTITLE7=Married Woman
TTITLE8=Woman In Love
EXTD=
EXTT0=
EXTT1=
EXTT2=
EXTT3=
EXTT4=
EXTT5=
EXTT6=
EXTT7=
EXTT8=
PLAYORDER=
